<svg xmlns="http://www.w3.org/2000/svg" xmlns:xlink="http://www.w3.org/1999/xlink" width="173" height="80" viewBox="0 0 173 80">
  <defs>
    <filter id="Ret창ngulo_61" x="0" y="0" width="173" height="80" filterUnits="userSpaceOnUse">
      <feOffset dx="10" dy="10" input="SourceAlpha"/>
      <feGaussianBlur stdDeviation="5" result="blur"/>
      <feFlood flood-opacity="0.302"/>
      <feComposite operator="in" in2="blur"/>
      <feComposite in="SourceGraphic"/>
    </filter>
  </defs>
  <g id="bt_voltar_ao_topo_dsktp" transform="translate(-1273.315 -924.924)">
    <g transform="matrix(1, 0, 0, 1, 1273.32, 924.92)" filter="url(#Ret창ngulo_61)">
      <rect id="Ret창ngulo_61-2" data-name="Ret창ngulo 61" width="143" height="50" rx="25" transform="translate(5 5)" fill="#004b8d"/>
    </g>
    <g id="Grupo_156" data-name="Grupo 156" transform="translate(1299.305 939.708)">
      <g id="Icon_feather-arrow-up-circle" data-name="Icon feather-arrow-up-circle" transform="translate(0 3.035)">
        <path id="Caminho_73" data-name="Caminho 73" d="M29.335,16.167A13.167,13.167,0,1,1,16.167,3,13.167,13.167,0,0,1,29.335,16.167Z" transform="translate(-3 -3)" fill="none" stroke="#fff" stroke-linecap="round" stroke-linejoin="round" stroke-width="2"/>
        <path id="Caminho_74" data-name="Caminho 74" d="M22.534,17.267,17.267,12,12,17.267" transform="translate(-4.1 -4.1)" fill="none" stroke="#fff" stroke-linecap="round" stroke-linejoin="round" stroke-width="2"/>
        <path id="Caminho_75" data-name="Caminho 75" d="M18,22.534V12" transform="translate(-4.833 -4.1)" fill="none" stroke="#fff" stroke-linecap="round" stroke-linejoin="round" stroke-width="2"/>
      </g>
      <text id="Voltar_para_o_topo" data-name="Voltar para
o topo" transform="translate(36.112 14)" fill="#fff" font-size="13" font-family="SegoeUI, Segoe UI"><tspan x="0" y="0">Voltar para</tspan><tspan x="0" y="12">o topo</tspan></text>
    </g>
  </g>
</svg>
